<svg width="493" height="510" viewBox="0 0 493 510" fill="none" xmlns="http://www.w3.org/2000/svg">
<path d="M25.318 3.57138C25.9674 3.56749 25.9674 3.56749 26.6299 3.56353C27.1037 3.56255 27.5775 3.56158 28.0657 3.56057C28.5707 3.5583 29.0758 3.55589 29.5808 3.55335C31.2384 3.54574 32.8961 3.54197 34.5537 3.53836C35.1255 3.53689 35.6972 3.5354 36.269 3.53388C38.9563 3.52698 41.6435 3.52182 44.3308 3.5188C47.427 3.51526 50.5232 3.50573 53.6193 3.49107C56.0161 3.48011 58.4127 3.47477 60.8095 3.47357C62.2392 3.47272 63.6688 3.4695 65.0985 3.46035C66.4453 3.45187 67.7918 3.4504 69.1385 3.45411C69.8634 3.45437 70.5882 3.44748 71.313 3.44031C73.7484 3.45427 75.665 3.67015 77.8758 4.72584C78.9659 5.2091 80.0614 5.39659 81.2327 5.58577C81.9251 5.79957 81.9251 5.79957 82.4023 6.29656C83.0255 6.97833 83.0255 6.97833 84.1511 7.31176C86.0394 8.07617 87.3187 9.53225 88.722 10.9648C88.9953 11.2325 89.2687 11.5003 89.5503 11.7761C91.0927 13.3293 92.0948 14.599 92.8001 16.6738C92.9795 17.0924 93.159 17.5111 93.3438 17.9424C93.5233 18.3611 93.7027 18.7797 93.8876 19.2111C94.082 19.6148 94.2764 20.0185 94.4766 20.4344C94.9889 21.7848 95.1595 22.923 95.2611 24.3508C95.2691 25.0172 95.2691 25.0172 95.7001 25.3731C95.7281 26.0673 95.7301 26.7626 95.7227 27.4574C95.6702 33.7528 95.7253 40.0405 95.8551 46.3348C96.0541 56.1794 96.0966 66.0184 96.0692 75.8646C96.0568 80.4082 96.0531 84.9519 96.0513 89.4955C96.0511 89.9616 96.0509 90.4277 96.0507 90.908C96.0483 101.316 96.1388 111.723 96.2438 122.131C96.3438 132.032 96.4416 141.933 96.4364 151.835C96.4362 152.212 96.4361 152.588 96.4359 152.975C96.4336 156.497 96.4278 160.018 96.415 163.539C96.3902 170.569 96.4395 177.592 96.5804 184.621C96.7431 192.736 96.8193 200.847 96.8102 208.964C96.81 209.223 96.8097 209.481 96.8095 209.747C96.8051 213.973 96.7957 218.2 96.7857 222.426C96.7764 226.382 96.7689 230.337 96.7649 234.292C96.7646 234.552 96.7644 234.811 96.7641 235.078C96.7566 242.388 96.8209 249.692 96.9688 257.001C97.1215 264.545 97.1811 272.086 97.1727 279.631C97.1725 279.889 97.1722 280.147 97.172 280.412C97.1676 284.62 97.1582 288.828 97.1482 293.036C97.1389 296.972 97.1313 300.909 97.1274 304.846C97.1271 305.104 97.1269 305.362 97.1266 305.628C97.1182 313.812 97.2066 321.99 97.3572 330.172C97.5168 338.882 97.5447 347.586 97.5192 356.297C97.5067 360.653 97.503 365.01 97.5013 369.366C97.5011 369.814 97.5009 370.263 97.5007 370.724C97.4981 381.329 97.5993 391.932 97.707 402.536C97.8078 412.483 97.891 422.43 97.8864 432.378C97.8862 432.805 97.8861 433.232 97.8859 433.672C97.8836 437.745 97.8775 441.817 97.865 445.89C97.8595 447.721 97.8556 449.553 97.8524 451.384C97.8514 451.913 97.8514 451.913 97.8504 452.453C97.8446 456.562 97.8779 460.668 97.9685 464.775C97.9817 465.374 97.9817 465.374 97.9952 465.984C98.0386 467.894 98.0864 469.803 98.1405 471.712C98.508 485.544 98.508 485.544 96.4251 489.701C96.2839 490.198 96.1482 490.697 96.0173 491.197C94.8722 494.61 92.0036 497.091 89.5376 499.602C89.2968 499.849 89.0561 500.096 88.8081 500.351C86.7112 502.444 84.5464 504.029 81.7212 504.993C81.3838 505.109 81.0464 505.225 80.6988 505.344C79.5419 505.717 78.3875 506.064 77.2126 506.375C76.8792 506.472 76.8792 506.472 76.539 506.571C75.6208 506.768 74.7689 506.793 73.8293 506.805C73.2411 506.813 73.2411 506.813 72.641 506.822C72.2125 506.826 71.7839 506.831 71.3423 506.835C70.663 506.844 70.663 506.844 69.9699 506.853C68.4674 506.872 66.965 506.888 65.4625 506.903C64.9429 506.909 64.4232 506.914 63.9036 506.92C61.738 506.943 59.5724 506.965 57.4068 506.984C54.3185 507.012 51.2303 507.045 48.1422 507.086C45.9634 507.114 43.7846 507.136 41.6057 507.154C40.3088 507.165 39.012 507.178 37.7152 507.197C22.9014 507.415 22.9014 507.415 17.7626 503.475C17.4934 503.386 17.2243 503.296 16.947 503.204C15.4061 502.503 14.279 501.36 13.0501 500.213C12.751 499.937 12.452 499.66 12.1438 499.375C11.6001 498.763 11.6001 498.763 11.6001 498.038C11.3833 497.949 11.1665 497.859 10.9431 497.767C9.34214 496.852 8.76201 495.294 7.97509 493.689C7.73584 493.292 7.49659 492.896 7.25009 492.488C6.40647 491.029 5.9133 489.499 5.43759 487.889C5.31406 487.507 5.19052 487.124 5.06324 486.73C4.70643 485.328 4.63069 484.17 4.64458 482.726C4.64645 482.353 4.64645 482.353 4.64836 481.972C4.65145 481.435 4.6562 480.898 4.66246 480.36C4.67594 479.196 4.68118 478.032 4.68714 476.867C4.69038 476.257 4.69406 475.648 4.69816 475.038C4.71866 471.919 4.70145 468.801 4.67932 465.683C4.67565 465.121 4.67203 464.559 4.66845 463.996C4.66103 462.843 4.65335 461.69 4.64546 460.536C4.63279 458.683 4.62082 456.83 4.60891 454.977C4.58142 450.709 4.55311 446.442 4.52474 442.175C4.49866 438.254 4.47278 434.332 4.44762 430.41C4.43776 428.877 4.42773 427.343 4.41723 425.81C4.37236 419.251 4.34562 412.693 4.35078 406.134C4.35503 400.171 4.32109 394.209 4.27689 388.247C4.26631 386.8 4.25639 385.353 4.24641 383.905C4.21687 379.638 4.18631 375.37 4.15563 371.102C4.12542 366.896 4.09572 362.689 4.06689 358.483C4.06488 358.191 4.06287 357.899 4.06079 357.598C4.01213 350.508 3.97651 343.42 3.98922 336.33C3.99907 330.24 3.9567 324.15 3.9083 318.06C3.9063 317.808 3.9043 317.555 3.90224 317.295C3.86718 312.869 3.83036 308.443 3.79313 304.017C3.76266 300.391 3.73285 296.766 3.70439 293.14C3.70238 292.885 3.70037 292.63 3.69829 292.366C3.6449 285.552 3.61532 278.739 3.62509 271.924C3.63624 264.114 3.59844 256.305 3.5458 248.495C3.5438 248.197 3.5418 247.899 3.53974 247.591C3.50468 242.357 3.46779 237.123 3.43063 231.889C3.40021 227.6 3.37049 223.311 3.34189 219.022C3.33988 218.722 3.33787 218.421 3.33579 218.112C3.27984 209.734 3.25361 201.357 3.26422 192.98C3.27251 185.751 3.23816 178.523 3.1833 171.294C3.1803 170.898 3.1803 170.898 3.17724 170.494C3.15083 167.019 3.12292 163.543 3.09455 160.067C3.06137 156.001 3.02899 151.934 2.99762 147.867C2.98784 146.603 2.97784 145.34 2.96723 144.076C2.921 138.548 2.89566 133.021 2.90009 127.493C2.90486 121.534 2.87663 115.574 2.83298 109.615C2.82019 107.868 2.80816 106.121 2.79627 104.375C2.7942 104.072 2.79214 103.769 2.79001 103.457C2.7858 102.838 2.78158 102.219 2.77737 101.6C2.77095 100.66 2.76448 99.719 2.75799 98.7784C2.49761 60.9475 2.49762 60.9475 2.47334 42.5772C2.47123 40.9934 2.46746 39.4096 2.46219 37.8258C2.45628 36.006 2.45388 34.1861 2.45451 32.3663C2.45421 31.7165 2.45272 31.0668 2.44991 30.417C2.44638 29.5446 2.44735 28.6723 2.44954 27.7998C2.4475 27.5514 2.44546 27.3029 2.44336 27.047C2.45403 25.4115 2.75783 24.0244 3.26259 22.4733C3.37474 22.1145 3.48689 21.7556 3.60244 21.3859C5.10913 17.1321 7.44314 14.1246 10.6485 10.9648C10.9429 10.6662 11.2373 10.3677 11.5406 10.06C13.816 7.7958 15.9694 5.89898 19.1673 5.1879C20.6177 4.88835 20.6177 4.88835 21.7501 3.9872C22.9337 3.57307 24.0722 3.57651 25.318 3.57138Z" fill="url(#paint0_linear_33_16)"/>
<path d="M379.282 237.744C380.651 237.73 382.02 237.72 383.389 237.711C383.972 237.706 384.555 237.699 385.138 237.69C389.535 237.623 393.302 238.132 397.208 240.253C398.023 240.704 398.023 240.704 398.931 241.012C400.734 241.798 402.054 243.327 403.463 244.669C403.652 244.847 403.841 245.024 404.036 245.207C404.627 245.763 405.212 246.325 405.796 246.89C406.072 247.15 406.072 247.15 406.354 247.415C407.675 248.715 408.248 249.862 408.9 251.556C409.139 251.915 409.379 252.274 409.625 252.644C409.83 253.258 410.018 253.878 410.191 254.502C410.451 255.668 410.451 255.668 411.075 256.631C411.166 257.711 411.231 258.783 411.279 259.865C411.294 260.205 411.31 260.544 411.326 260.894C411.483 264.749 411.465 268.602 411.444 272.459C411.41 278.913 411.423 285.362 411.542 291.815C411.55 292.22 411.55 292.22 411.557 292.634C411.605 295.288 411.656 297.941 411.718 300.595C411.735 301.34 411.75 302.085 411.764 302.831C411.782 303.743 411.803 304.655 411.827 305.567C411.834 305.971 411.841 306.376 411.849 306.792C411.857 307.143 411.865 307.495 411.873 307.856C411.793 308.916 411.506 309.675 411.075 310.64C410.876 311.484 410.714 312.329 410.554 313.181C410.35 313.902 410.35 313.902 409.625 314.627C409.506 315.21 409.4 315.796 409.301 316.383C408.601 319.068 406.839 320.713 404.898 322.572C404.3 323.146 403.716 323.732 403.132 324.32C401.232 326.203 399.599 327.744 396.938 328.401C396.616 328.502 396.295 328.603 395.963 328.707C395.404 328.865 394.846 329.024 394.287 329.182C393.259 329.48 393.259 329.48 392.139 330.048C390.069 330.822 387.965 330.69 385.783 330.647C384.719 330.627 383.655 330.618 382.591 330.61C382.035 330.605 381.479 330.6 380.923 330.594C378.39 330.569 375.859 330.597 373.326 330.642C372.051 330.664 370.775 330.684 369.5 330.705C369.236 330.709 368.972 330.713 368.7 330.717C359.009 330.874 349.32 330.954 339.627 330.949C339.17 330.949 338.712 330.949 338.241 330.949C333.669 330.947 329.098 330.94 324.526 330.928C314.879 330.903 305.24 330.957 295.595 331.148C290.467 331.25 285.343 331.331 280.214 331.298C279.97 331.296 279.725 331.295 279.474 331.293C277.369 331.281 275.263 331.263 273.158 331.238C271.734 331.222 270.31 331.215 268.886 331.207C268.47 331.2 268.054 331.194 267.625 331.187C264.261 331.176 261.407 331.551 258.825 333.838C258.518 333.928 258.212 334.017 257.896 334.11C256.687 334.73 256.42 335.533 255.887 336.748C255.562 337.463 255.562 337.463 254.837 338.55C254.515 339.786 254.43 340.943 254.429 342.217C254.428 342.584 254.427 342.95 254.426 343.328C254.427 343.928 254.427 343.928 254.428 344.54C254.427 345.179 254.427 345.179 254.426 345.831C254.425 347.007 254.425 348.184 254.426 349.36C254.427 350.36 254.426 351.359 254.426 352.359C254.424 355.054 254.425 357.749 254.428 360.444C254.429 362.436 254.43 364.427 254.431 366.418C254.434 380.351 254.488 394.281 254.656 408.213C254.839 423.329 254.879 438.444 254.882 453.561C254.882 455.744 254.884 457.926 254.886 460.109C254.888 463.052 254.888 465.996 254.886 468.939C254.886 470.036 254.886 471.132 254.887 472.229C254.888 473.737 254.886 475.246 254.884 476.754C254.886 477.42 254.886 477.42 254.887 478.1C254.886 478.506 254.885 478.913 254.884 479.331C254.883 479.683 254.883 480.034 254.883 480.396C254.838 481.359 254.68 482.237 254.475 483.177C254.432 483.803 254.394 484.43 254.362 485.057C254.14 487.702 253.128 489.9 251.937 492.239C251.75 492.612 251.75 492.612 251.559 492.992C250.474 495.053 249.188 496.715 247.587 498.401C247.128 498.894 247.128 498.894 246.659 499.398C244.387 501.494 241.695 502.635 238.887 503.838C238.327 504.141 238.327 504.141 237.755 504.45C236.651 504.953 236.088 504.954 234.9 504.925C234.531 505.043 234.162 505.16 233.782 505.282C232.189 505.752 230.669 505.744 229.019 505.727C228.531 505.726 228.531 505.726 228.034 505.725C226.966 505.723 225.899 505.716 224.832 505.708C224.089 505.706 223.346 505.704 222.602 505.703C220.651 505.698 218.701 505.689 216.75 505.679C213.619 505.663 210.489 505.653 207.358 505.644C206.263 505.64 205.168 505.634 204.073 505.628C203.407 505.625 202.741 505.623 202.075 505.621C201.768 505.618 201.462 505.616 201.146 505.613C200.435 505.612 199.723 505.629 199.012 505.65C198.893 505.77 198.773 505.89 198.65 506.013C197.135 506.142 195.615 506.183 194.096 506.235C193.335 506.262 192.575 506.295 191.814 506.328C191.327 506.345 190.84 506.363 190.354 506.38C189.912 506.396 189.47 506.413 189.014 506.43C187.74 506.374 186.788 506.094 185.6 505.65C184.75 505.577 184.75 505.577 183.946 505.628C182.739 505.654 181.7 505.597 180.525 505.288C180.084 505.176 179.643 505.064 179.188 504.948C177.987 504.563 177.987 504.563 177.262 503.838C176.919 503.726 176.575 503.614 176.22 503.498C175.135 503.129 174.531 502.711 173.637 502.026C173.296 501.957 173.296 501.957 172.948 501.887C171.995 501.607 171.613 501.186 170.941 500.462C170.213 499.698 169.532 499.033 168.698 498.378C166.905 496.915 165.98 495.512 165.3 493.326C165.133 493.175 164.966 493.024 164.794 492.869C163.958 491.963 163.687 490.997 163.284 489.837C163.134 489.414 162.984 488.991 162.829 488.555C161.924 485.732 161.579 483.143 161.641 480.18C161.648 479.47 161.655 478.759 161.661 478.049C161.664 477.693 161.668 477.337 161.671 476.97C161.677 475.409 161.639 473.85 161.596 472.29C161.579 471.664 161.563 471.038 161.546 470.413C161.537 470.09 161.529 469.767 161.52 469.434C161.317 461.556 161.281 453.681 161.29 445.801C161.29 445.52 161.29 445.238 161.291 444.948C161.294 441.718 161.3 438.487 161.306 435.257C161.318 428.999 161.322 422.742 161.324 416.485C161.324 416.02 161.324 416.02 161.324 415.547C161.327 404.749 161.266 393.954 161.131 383.157C161.096 380.343 161.062 377.528 161.029 374.714C161.025 374.374 161.021 374.034 161.017 373.683C160.919 365.014 160.937 356.345 160.952 347.675C160.973 334.883 160.901 322.094 160.782 309.302C160.542 283.428 160.542 283.428 160.523 274.067C160.521 273.064 160.517 272.06 160.512 271.057C160.506 269.721 160.504 268.385 160.504 267.049C160.501 266.68 160.499 266.31 160.496 265.929C160.509 262 160.828 257.6 162.762 254.094C162.875 253.855 162.987 253.615 163.102 253.369C163.487 252.644 163.487 252.644 164.031 251.942C164.61 251.224 164.61 251.224 164.853 250.377C165.422 249.11 166.26 248.203 167.203 247.207C167.372 247.023 167.54 246.839 167.714 246.649C169.378 244.862 170.968 243.382 173.275 242.495C173.522 242.27 173.768 242.046 174.023 241.815C178.012 238.93 183.564 238.762 188.286 238.754C188.804 238.751 189.322 238.747 189.84 238.743C191.241 238.733 192.641 238.728 194.041 238.723C195.524 238.717 197.006 238.708 198.489 238.699C200.988 238.684 203.487 238.671 205.986 238.66C209.46 238.646 212.935 238.626 216.409 238.606C225.767 238.552 235.125 238.503 244.483 238.509C250.94 238.513 257.396 238.479 263.853 238.434C265.398 238.424 266.944 238.414 268.489 238.404C272.061 238.381 275.632 238.357 279.203 238.333C283.758 238.302 288.312 238.272 292.866 238.242C294.389 238.233 295.913 238.223 297.436 238.212C303.505 238.171 309.573 238.14 315.642 238.146C320.969 238.149 326.296 238.11 331.623 238.072C333.113 238.061 334.603 238.051 336.093 238.041C340.814 238.009 345.536 237.977 350.257 237.944C351.826 237.933 353.394 237.922 354.963 237.911C355.27 237.909 355.578 237.907 355.895 237.905C359.222 237.882 362.55 237.86 365.877 237.841C366.31 237.838 366.31 237.838 366.751 237.835C367.883 237.829 369.014 237.822 370.146 237.816C373.191 237.799 376.237 237.778 379.282 237.744Z" fill="url(#paint1_linear_33_16)"/>
<path d="M434.858 81.1495C437.314 81.149 439.77 81.1476 442.226 81.1459C445.558 81.1437 448.889 81.1437 452.221 81.1453C453.464 81.1458 454.707 81.1456 455.95 81.1446C457.392 81.1436 458.833 81.1443 460.275 81.1464C460.801 81.1468 461.326 81.1467 461.852 81.1459C462.565 81.1449 463.278 81.1464 463.991 81.148C464.589 81.1482 464.589 81.1482 465.198 81.1484C466.175 81.194 466.175 81.194 467.262 81.5565C467.778 81.5228 467.778 81.5228 468.305 81.4885C471.488 81.4478 474.401 82.696 476.687 84.8187C477.063 84.9561 477.438 85.0935 477.824 85.235C479.675 85.9935 480.915 87.4128 482.283 88.8286C482.681 89.227 482.681 89.227 483.087 89.6335C485.025 91.6038 485.025 91.6038 485.025 92.4307C485.264 92.5503 485.503 92.6699 485.75 92.7931C485.817 93.1071 485.817 93.1071 485.886 93.4275C486.062 94.3009 486.062 94.3009 486.792 94.9906C487.911 96.5371 488.204 98.2093 488.65 100.043C488.769 100.401 488.889 100.76 489.012 101.13C489.012 101.855 489.012 102.58 489.012 103.305C489.132 103.544 489.252 103.783 489.375 104.03C489.51 105.345 489.53 106.67 489.576 107.992C489.591 108.43 489.606 108.868 489.622 109.32C489.842 116.289 489.792 123.265 489.785 130.237C489.782 132.322 489.784 134.408 489.786 136.494C489.787 138.109 489.787 139.725 489.786 141.341C489.786 142.111 489.786 142.881 489.787 143.652C489.788 144.717 489.786 145.783 489.784 146.849C489.785 147.166 489.786 147.483 489.786 147.809C489.779 149.981 489.779 149.981 489.375 150.789C489.391 151.208 489.407 151.626 489.423 152.058C489.444 153.949 488.878 155.55 488.242 157.313C488.088 157.776 488.088 157.776 487.93 158.248C487.188 160.352 486.241 162.229 484.662 163.838C484.423 163.838 484.184 163.838 483.937 163.838C483.818 164.197 483.698 164.556 483.575 164.925C482.956 165.523 482.956 165.523 482.193 166.149C481.327 166.879 480.63 167.519 479.927 168.414C479.012 169.536 477.94 170.362 476.687 171.087C476.448 171.087 476.209 171.087 475.962 171.087C475.962 171.327 475.962 171.566 475.962 171.812C475.723 171.85 475.484 171.887 475.237 171.926C473.475 172.329 471.823 173.04 470.14 173.693C468.898 174.036 467.822 174.01 466.537 173.987C466.238 174.046 465.939 174.105 465.631 174.166C463.814 174.429 462.021 174.378 460.188 174.361C456.769 174.345 453.354 174.364 449.936 174.429C438.994 174.627 428.055 174.729 417.111 174.723C416.736 174.723 416.736 174.723 416.352 174.723C412.441 174.721 408.529 174.717 404.618 174.712C390.585 174.696 376.555 174.706 362.522 174.893C350.466 175.054 338.414 175.091 326.357 175.073C315.854 175.057 305.356 175.098 294.855 175.269C286.393 175.406 277.932 175.452 269.469 175.448C269.087 175.448 269.087 175.448 268.698 175.448C263.549 175.446 258.4 175.441 253.251 175.429C242.782 175.404 232.32 175.439 221.853 175.663C214.506 175.819 207.161 175.879 199.813 175.887C198.029 175.889 196.245 175.898 194.46 175.908C193.05 175.914 191.64 175.916 190.229 175.917C189.57 175.918 188.911 175.921 188.252 175.926C183.659 175.957 179.678 175.57 175.45 173.625C174.945 173.49 174.945 173.49 174.43 173.353C172.636 172.649 171.191 171.505 169.65 170.362C169.35 170.151 169.051 169.939 168.742 169.721C166.911 168.385 165.96 167.299 164.937 165.288C164.575 164.799 164.204 164.316 163.827 163.838C162.859 162.571 162.23 161.357 161.675 159.851C161.53 159.483 161.53 159.483 161.382 159.107C160.684 157.228 160.421 155.464 160.301 153.465C160.254 152.548 160.254 152.548 159.862 151.514C159.828 150.91 159.815 150.306 159.814 149.701C159.812 149.327 159.811 148.952 159.809 148.566C159.809 148.156 159.809 147.745 159.81 147.322C159.808 146.889 159.807 146.456 159.806 146.011C159.803 144.823 159.802 143.635 159.802 142.447C159.801 141.704 159.801 140.96 159.8 140.217C159.796 137.621 159.795 135.024 159.795 132.428C159.795 130.013 159.792 127.599 159.786 125.185C159.781 123.109 159.779 121.032 159.779 118.956C159.779 117.718 159.778 116.479 159.775 115.241C159.771 113.856 159.772 112.472 159.774 111.087C159.772 110.682 159.77 110.276 159.768 109.858C159.778 107.464 160.03 105.269 160.587 102.942C160.709 102.359 160.709 102.359 160.832 101.764C162.001 96.7159 164.397 93.7619 167.966 90.1371C168.469 89.6257 168.966 89.1082 169.461 88.5893C172.022 85.9397 174.495 84.8134 177.987 83.7313C178.324 83.6052 178.66 83.479 179.007 83.349C186.187 81.2198 195.234 82.2581 202.671 82.2799C210.756 82.3015 218.84 82.2609 226.925 82.2021C227.487 82.1981 228.049 82.194 228.611 82.19C233.216 82.1569 237.822 82.1222 242.427 82.087C246.428 82.0564 250.429 82.0266 254.429 81.9982C254.712 81.9962 254.995 81.9942 255.287 81.9921C263.531 81.9338 271.774 81.9098 280.018 81.9189C288.587 81.9284 297.156 81.9001 305.725 81.8397C306.151 81.8367 306.151 81.8367 306.587 81.8336C310.622 81.8052 314.658 81.7749 318.694 81.7443C323.332 81.7092 327.969 81.6748 332.607 81.6418C333.172 81.6378 333.738 81.6337 334.303 81.6297C341.839 81.5755 349.374 81.5469 356.911 81.5581C362.211 81.5653 367.51 81.5368 372.81 81.4772C373.349 81.4712 373.349 81.4712 373.899 81.465C375.392 81.4483 376.885 81.4314 378.378 81.4145C397.204 81.2021 416.03 81.1528 434.858 81.1495Z" fill="url(#paint2_linear_33_16)"/>
<defs>
<linearGradient id="paint0_linear_33_16" x1="50.3846" y1="3.44031" x2="50.3846" y2="507.272" gradientUnits="userSpaceOnUse">
<stop offset="0.293269" stop-color="#57B5B5"/>
<stop offset="1" stop-color="#349290"/>
</linearGradient>
<linearGradient id="paint1_linear_33_16" x1="286.185" y1="237.684" x2="286.185" y2="506.43" gradientUnits="userSpaceOnUse">
<stop offset="0.293269" stop-color="#57B5B5"/>
<stop offset="1" stop-color="#349290"/>
</linearGradient>
<linearGradient id="paint2_linear_33_16" x1="324.781" y1="81.1442" x2="324.781" y2="175.927" gradientUnits="userSpaceOnUse">
<stop offset="0.293269" stop-color="#57B5B5"/>
<stop offset="1" stop-color="#349290"/>
</linearGradient>
</defs>
</svg>
