<svg width="571" height="767" viewBox="0 0 571 767" fill="none" xmlns="http://www.w3.org/2000/svg">
<path d="M39.6602 600.451V196.527H116.714V382.781L271.955 196.527H366.007L195.468 395.684L376.772 600.451H279.321L116.714 416.442V600.451H39.6602ZM206.822 600.451V196.527H338.833C342.044 196.527 348.654 196.621 358.663 196.808C368.673 196.995 378.304 197.649 387.559 198.771C420.42 202.698 448.275 214.012 471.128 232.712C493.981 251.413 511.355 275.161 523.253 303.96C535.151 332.758 541.1 364.268 541.1 398.489C541.1 432.711 535.151 464.219 523.253 493.019C511.355 521.819 493.981 545.565 471.128 564.267C448.275 582.968 420.42 594.28 387.559 598.207C378.304 599.33 368.673 599.983 358.663 600.171C348.654 600.359 342.044 600.451 338.833 600.451H206.822ZM285.009 528.643H338.833C343.932 528.643 350.826 528.551 359.513 528.362C368.201 527.99 376.038 527.148 383.026 525.838C400.779 522.283 415.226 514.057 426.369 501.153C437.7 488.25 446.009 472.731 451.298 454.59C456.773 436.451 459.513 417.751 459.513 398.489C459.513 378.293 456.681 359.126 451.015 340.986C445.539 322.847 437.134 307.513 425.802 294.984C414.471 282.455 400.212 274.507 383.026 271.141C376.038 269.645 368.201 268.804 359.513 268.617C350.826 268.429 343.932 268.336 338.833 268.336H285.009V528.643Z" fill="white"/>
<path d="M225.744 372.543H185.907V425.137H225.744V372.543Z" fill="white"/>
</svg>
